<svg width="512" height="512" viewBox="0 0 512 512" fill="none" xmlns="http://www.w3.org/2000/svg">
<g clip-path="url(#clip0_4020_43)">
<circle cx="256" cy="256" r="256" fill="#1C1917"/>
<path d="M401.362 280.13C402.233 281.511 402.151 283.288 401.157 284.583L363.073 334.153C362.335 335.113 361.194 335.675 359.983 335.675H241.318C239.984 335.675 238.743 334.992 238.028 333.866L221.325 307.526C220.515 306.249 220.518 304.619 221.331 303.344L252.181 255.008C252.897 253.886 254.135 253.207 255.465 253.207H268.18C269.526 253.207 270.777 253.902 271.488 255.045L287.383 280.59C288.094 281.733 289.345 282.428 290.691 282.428H327.568C330.635 282.428 332.499 279.048 330.863 276.454L273.631 185.693C272.105 183.273 268.577 183.269 267.045 185.685L225.172 251.738C225.167 251.745 225.161 251.75 225.153 251.754C225.146 251.757 225.139 251.763 225.135 251.77L205.115 282.888C205.114 282.889 205.113 282.891 205.113 282.893C205.113 282.894 205.113 282.896 205.112 282.897L172.791 333.866C172.076 334.992 170.835 335.675 169.501 335.675H109.903C106.83 335.675 104.966 332.284 106.614 329.69L228.288 138.132C229.002 137.006 230.243 136.325 231.576 136.325H308.456C309.793 136.325 311.037 137.011 311.751 138.141L401.362 280.13Z" fill="#D6D3D1"/>
</g>
<defs>
<clipPath id="clip0_4020_43">
<rect width="512" height="512" fill="white"/>
</clipPath>
</defs>
</svg>
