<svg width="462" height="308" viewBox="0 0 462 308" fill="none" xmlns="http://www.w3.org/2000/svg">
<path d="M459.766 221.961C461.108 224.087 460.982 226.825 459.45 228.819L400.801 305.155C399.666 306.634 397.907 307.5 396.043 307.5H213.3C211.245 307.5 209.333 306.449 208.233 304.713L182.51 264.151C181.263 262.184 181.266 259.673 182.519 257.71L230.028 183.272C231.13 181.545 233.037 180.5 235.085 180.5H254.667C256.74 180.5 258.666 181.57 259.761 183.33L284.239 222.67C285.334 224.43 287.26 225.5 289.333 225.5H346.123C350.847 225.5 353.718 220.295 351.199 216.3L263.062 76.5272C260.711 72.7996 255.278 72.793 252.919 76.515L188.435 178.235C188.428 178.246 188.417 178.255 188.405 178.26C188.393 178.266 188.383 178.274 188.376 178.286L158 225.501C158 225.501 158 225.501 158 225.5C158 225.5 158 225.5 158 225.5L157.909 225.643L157.546 226.208C157.545 226.21 157.544 226.212 157.544 226.214C157.544 226.217 157.543 226.219 157.542 226.221L107.767 304.713C106.667 306.449 104.755 307.5 102.7 307.5H10.9191C6.18686 307.5 3.31717 302.278 5.85443 298.283L193.232 3.28302C194.333 1.54988 196.244 0.5 198.297 0.5H316.692C318.751 0.5 320.667 1.55618 321.766 3.29774L459.766 221.961Z" fill="#1C1917"/>
</svg>
